<svg width="41" height="40" viewBox="0 0 41 40" fill="none" xmlns="http://www.w3.org/2000/svg">
<path d="M14.4616 37.1558L11.2666 31.8714L5.21294 30.5503L5.80149 24.4403L1.68164 19.8164L5.80149 15.1926L5.21294 9.08252L11.2666 7.76143L14.4616 2.47705L20.1789 4.87154L25.8963 2.47705L29.0913 7.76143L35.1449 9.08252L34.5564 15.1926L38.6762 19.8164L34.5564 24.4403L35.1449 30.5503L29.0913 31.8714L25.8963 37.1558L20.1789 34.7613L14.4616 37.1558ZM15.8909 32.9448L20.1789 31.1283L24.551 32.9448L26.9052 28.9815L31.5295 27.9081L31.1091 23.2843L34.22 19.8164L31.1091 16.266L31.5295 11.6421L26.9052 10.6513L24.4669 6.68804L20.1789 8.50455L15.8068 6.68804L13.4526 10.6513L8.82832 11.6421L9.24871 16.266L6.1378 19.8164L9.24871 23.2843L8.82832 27.9907L13.4526 28.9815L15.8909 32.9448ZM18.4133 25.6788L27.9142 16.3485L25.56 13.9541L18.4133 20.9724L14.7979 17.5045L12.4437 19.8164L18.4133 25.6788Z" fill="#2D2D2C" fill-opacity="0.35"/>
</svg>
